<svg width="200" height="200" viewBox="0 0 200 200" xmlns="http://www.w3.org/2000/svg">
  <g fill="none" stroke="currentColor" stroke-width="1" opacity="0.08">
    <!-- Center circle -->
    <circle cx="100" cy="100" r="8"/>
    
    <!-- Inner petals -->
    <g>
      <path d="M 100 92 Q 108 92 108 100 Q 108 108 100 108 Q 92 108 92 100 Q 92 92 100 92 Z"/>
      <path d="M 100 92 Q 108 92 108 100 Q 108 108 100 108 Q 92 108 92 100 Q 92 92 100 92 Z" transform="rotate(45 100 100)"/>
      <path d="M 100 92 Q 108 92 108 100 Q 108 108 100 108 Q 92 108 92 100 Q 92 92 100 92 Z" transform="rotate(90 100 100)"/>
      <path d="M 100 92 Q 108 92 108 100 Q 108 108 100 108 Q 92 108 92 100 Q 92 92 100 92 Z" transform="rotate(135 100 100)"/>
      <path d="M 100 92 Q 108 92 108 100 Q 108 108 100 108 Q 92 108 92 100 Q 92 92 100 92 Z" transform="rotate(180 100 100)"/>
      <path d="M 100 92 Q 108 92 108 100 Q 108 108 100 108 Q 92 108 92 100 Q 92 92 100 92 Z" transform="rotate(225 100 100)"/>
      <path d="M 100 92 Q 108 92 108 100 Q 108 108 100 108 Q 92 108 92 100 Q 92 92 100 92 Z" transform="rotate(270 100 100)"/>
      <path d="M 100 92 Q 108 92 108 100 Q 108 108 100 108 Q 92 108 92 100 Q 92 92 100 92 Z" transform="rotate(315 100 100)"/>
    </g>
    
    <!-- Middle ring -->
    <circle cx="100" cy="100" r="25"/>
    
    <!-- Outer petals -->
    <g>
      <ellipse cx="100" cy="65" rx="8" ry="15"/>
      <ellipse cx="100" cy="65" rx="8" ry="15" transform="rotate(45 100 100)"/>
      <ellipse cx="100" cy="65" rx="8" ry="15" transform="rotate(90 100 100)"/>
      <ellipse cx="100" cy="65" rx="8" ry="15" transform="rotate(135 100 100)"/>
      <ellipse cx="100" cy="65" rx="8" ry="15" transform="rotate(180 100 100)"/>
      <ellipse cx="100" cy="65" rx="8" ry="15" transform="rotate(225 100 100)"/>
      <ellipse cx="100" cy="65" rx="8" ry="15" transform="rotate(270 100 100)"/>
      <ellipse cx="100" cy="65" rx="8" ry="15" transform="rotate(315 100 100)"/>
    </g>
    
    <!-- Outer circle -->
    <circle cx="100" cy="100" r="50"/>
  </g>
</svg>
